<svg xmlns="http://www.w3.org/2000/svg" xmlns:xlink="http://www.w3.org/1999/xlink" width="500" zoomAndPan="magnify" viewBox="0 0 375 299.999988" height="400" preserveAspectRatio="xMidYMid meet" version="1.0"><defs><g/><clipPath id="b0ee368141"><path d="M 56 24 L 92 24 L 92 54 L 56 54 Z M 56 24 " clip-rule="nonzero"/></clipPath><clipPath id="3394c8e4ff"><path d="M 91.746094 56.089844 L 55.003906 55.191406 L 55.777344 23.699219 L 92.515625 24.601562 Z M 91.746094 56.089844 " clip-rule="nonzero"/></clipPath><clipPath id="9d8cb9913e"><path d="M 91.746094 56.089844 L 55.003906 55.191406 L 55.777344 23.699219 L 92.515625 24.601562 Z M 91.746094 56.089844 " clip-rule="nonzero"/></clipPath><clipPath id="2b3bc00de7"><path d="M 32 42.410156 L 153 42.410156 L 153 166 L 32 166 Z M 32 42.410156 " clip-rule="nonzero"/></clipPath><clipPath id="0408a862a1"><path d="M 58 71 L 103 71 L 103 114 L 58 114 Z M 58 71 " clip-rule="nonzero"/></clipPath><clipPath id="aed8da1405"><path d="M 110.070312 64.003906 L 106.886719 117.15625 L 49.242188 113.707031 L 52.421875 60.550781 Z M 110.070312 64.003906 " clip-rule="nonzero"/></clipPath><clipPath id="9e787842a0"><path d="M 110.070312 64.003906 L 106.886719 117.15625 L 49.242188 113.707031 L 52.421875 60.550781 Z M 110.070312 64.003906 " clip-rule="nonzero"/></clipPath><clipPath id="9bed72886c"><path d="M 264 95 L 303 95 L 303 132 L 264 132 Z M 264 95 " clip-rule="nonzero"/></clipPath><clipPath id="7daa848c5b"><path d="M 309.261719 88.335938 L 306.484375 134.75 L 256.324219 131.75 L 259.101562 85.332031 Z M 309.261719 88.335938 " clip-rule="nonzero"/></clipPath><clipPath id="04d9967876"><path d="M 309.261719 88.335938 L 306.484375 134.75 L 256.324219 131.75 L 259.101562 85.332031 Z M 309.261719 88.335938 " clip-rule="nonzero"/></clipPath><clipPath id="c20877c9e6"><path d="M 135.078125 47 L 239 47 L 239 184 L 135.078125 184 Z M 135.078125 47 " clip-rule="nonzero"/></clipPath><clipPath id="1bdb1fafbf"><path d="M 162 93 L 209 93 L 209 138 L 162 138 Z M 162 93 " clip-rule="nonzero"/></clipPath><clipPath id="2e8d977c15"><path d="M 216.589844 84.953125 L 213.230469 141.101562 L 151.839844 137.429688 L 155.199219 81.277344 Z M 216.589844 84.953125 " clip-rule="nonzero"/></clipPath><clipPath id="94fe89826c"><path d="M 216.589844 84.953125 L 213.230469 141.101562 L 151.839844 137.429688 L 155.199219 81.277344 Z M 216.589844 84.953125 " clip-rule="nonzero"/></clipPath><clipPath id="3d648d4053"><path d="M 208 50 L 218 50 L 218 60 L 208 60 Z M 208 50 " clip-rule="nonzero"/></clipPath><clipPath id="383c74e1e6"><path d="M 219.191406 49.34375 L 218.515625 60.574219 L 206.539062 59.855469 L 207.210938 48.628906 Z M 219.191406 49.34375 " clip-rule="nonzero"/></clipPath><clipPath id="56d15e5f4f"><path d="M 219.191406 49.34375 L 218.515625 60.574219 L 206.539062 59.855469 L 207.210938 48.628906 Z M 219.191406 49.34375 " clip-rule="nonzero"/></clipPath><clipPath id="fe37f48023"><path d="M 186 42 L 196 42 L 196 52 L 186 52 Z M 186 42 " clip-rule="nonzero"/></clipPath><clipPath id="e0ff1254c4"><path d="M 197.230469 40.707031 L 196.558594 51.933594 L 184.582031 51.21875 L 185.253906 39.988281 Z M 197.230469 40.707031 " clip-rule="nonzero"/></clipPath><clipPath id="5f1433fe9b"><path d="M 197.230469 40.707031 L 196.558594 51.933594 L 184.582031 51.21875 L 185.253906 39.988281 Z M 197.230469 40.707031 " clip-rule="nonzero"/></clipPath><clipPath id="5291d4d8e6"><path d="M 164 48 L 174 48 L 174 58 L 164 58 Z M 164 48 " clip-rule="nonzero"/></clipPath><clipPath id="198f049faa"><path d="M 175.085938 46.667969 L 174.414062 57.898438 L 162.433594 57.179688 L 163.105469 45.953125 Z M 175.085938 46.667969 " clip-rule="nonzero"/></clipPath><clipPath id="cd02ccf014"><path d="M 175.085938 46.667969 L 174.414062 57.898438 L 162.433594 57.179688 L 163.105469 45.953125 Z M 175.085938 46.667969 " clip-rule="nonzero"/></clipPath><clipPath id="e2378d297c"><path d="M 90 110 L 128 110 L 128 152 L 90 152 Z M 90 110 " clip-rule="nonzero"/></clipPath><clipPath id="4764003b8d"><path d="M 87.785156 119.351562 L 123.378906 110.191406 L 132.164062 144.328125 L 96.574219 153.488281 Z M 87.785156 119.351562 " clip-rule="nonzero"/></clipPath><clipPath id="ac2ea52393"><path d="M 87.785156 119.351562 L 123.378906 110.191406 L 132.164062 144.328125 L 96.574219 153.488281 Z M 87.785156 119.351562 " clip-rule="nonzero"/></clipPath><clipPath id="9dc947960b"><path d="M 98 124 L 134 124 L 134 159 L 98 159 Z M 98 124 " clip-rule="nonzero"/></clipPath><clipPath id="49e60a95e9"><path d="M 94.179688 129.878906 L 129.769531 120.71875 L 137.621094 151.222656 L 102.03125 160.382812 Z M 94.179688 129.878906 " clip-rule="nonzero"/></clipPath><clipPath id="74e3a439e3"><path d="M 94.179688 129.878906 L 129.769531 120.71875 L 137.621094 151.222656 L 102.03125 160.382812 Z M 94.179688 129.878906 " clip-rule="nonzero"/></clipPath><clipPath id="2c47a19af9"><path d="M 284 140 L 313 140 L 313 157 L 284 157 Z M 284 140 " clip-rule="nonzero"/></clipPath><clipPath id="06f916162c"><path d="M 287.089844 132.78125 L 315.613281 139.253906 L 311.296875 158.269531 L 282.773438 151.796875 Z M 287.089844 132.78125 " clip-rule="nonzero"/></clipPath><clipPath id="17f9e885bb"><path d="M 287.089844 132.78125 L 315.613281 139.253906 L 311.296875 158.269531 L 282.773438 151.796875 Z M 287.089844 132.78125 " clip-rule="nonzero"/></clipPath><clipPath id="7eff94ae74"><path d="M 168.660156 153.066406 L 206.160156 153.066406 L 206.160156 172 L 168.660156 172 Z M 168.660156 153.066406 " clip-rule="nonzero"/></clipPath><clipPath id="b4c7e7e0d3"><path d="M 176.410156 153.671875 L 198.910156 153.671875 L 198.910156 164.921875 L 176.410156 164.921875 Z M 176.410156 153.671875 " clip-rule="nonzero"/></clipPath><clipPath id="fc5e7a6c59"><path d="M 287 143 L 299 143 L 299 148 L 287 148 Z M 287 143 " clip-rule="nonzero"/></clipPath><clipPath id="2224ad0756"><path d="M 287.121094 144.015625 L 298.152344 141.800781 L 299.1875 146.949219 L 288.15625 149.160156 Z M 287.121094 144.015625 " clip-rule="nonzero"/></clipPath><clipPath id="cc2c4868c0"><path d="M 287.121094 144.015625 L 298.152344 141.800781 L 299.1875 146.949219 L 288.15625 149.160156 Z M 287.121094 144.015625 " clip-rule="nonzero"/></clipPath><clipPath id="e8e7d47fff"><path d="M 295 140 L 306 140 L 306 147 L 295 147 Z M 295 140 " clip-rule="nonzero"/></clipPath><clipPath id="0086374dee"><path d="M 294.953125 144.46875 L 305.003906 139.410156 L 307.363281 144.101562 L 297.3125 149.160156 Z M 294.953125 144.46875 " clip-rule="nonzero"/></clipPath><clipPath id="57392f1f52"><path d="M 294.953125 144.46875 L 305.003906 139.410156 L 307.363281 144.101562 L 297.3125 149.160156 Z M 294.953125 144.46875 " clip-rule="nonzero"/></clipPath><clipPath id="c924063f78"><path d="M 269 57 L 313 57 L 313 74 L 269 74 Z M 269 57 " clip-rule="nonzero"/></clipPath><clipPath id="262254456a"><path d="M 270.371094 78.34375 L 267.589844 62.078125 L 309.730469 54.875 L 312.507812 71.136719 Z M 270.371094 78.34375 " clip-rule="nonzero"/></clipPath><clipPath id="7e40774664"><path d="M 270.371094 78.34375 L 267.589844 62.078125 L 309.730469 54.875 L 312.507812 71.136719 Z M 270.371094 78.34375 " clip-rule="nonzero"/></clipPath></defs><g fill="#38b6ff" fill-opacity="0.4"><g transform="translate(25.136944, 242.188485)"><g><path d="M 29.5 0.09375 L 28.453125 0 L 27.296875 -0.5 L 26.296875 -1.25 L 26 -2.15625 L 25.546875 -3.09375 L 24.59375 -3.90625 L 23.5 -4.453125 L 22.40625 -4.296875 L 21.5 -4.40625 L 16.59375 -4.34375 L 15.703125 -4.5 L 13.59375 -4.296875 L 12.65625 -4.453125 L 11.59375 -3.90625 L 10.65625 -2.953125 L 9.75 -1.296875 L 8.796875 -0.40625 L 7.65625 -0.046875 L 4.84375 0.046875 L 3.84375 -0.046875 L 1.90625 0.046875 L 0.90625 -0.25 L 0.65625 -1.5 L 0.953125 -2.5 L 1.953125 -4.5 L 2.203125 -5.40625 L 2.75 -6.09375 L 3.5 -8.09375 L 4.40625 -9.703125 L 4.75 -10.703125 L 5.25 -11.453125 L 5.546875 -12.546875 L 10.65625 -23.25 L 10.953125 -24.15625 L 11.5 -25.09375 L 11.75 -26.09375 L 12.296875 -26.84375 L 14.296875 -31.453125 L 14.75 -32.15625 L 15.09375 -33.15625 L 15.546875 -34 L 16.453125 -34.84375 L 18.046875 -35.40625 L 19.703125 -34.90625 L 20.546875 -34 L 21.5 -32.25 L 21.796875 -31.34375 L 22.34375 -30.453125 L 22.65625 -29.453125 L 25.953125 -22.5 L 26.296875 -21.453125 L 27.34375 -19.59375 L 27.65625 -18.796875 L 28.09375 -18.046875 L 28.40625 -16.953125 L 28.90625 -16 L 29.40625 -15.25 L 31.296875 -10.703125 L 32.296875 -8.90625 L 33 -7.046875 L 34.34375 -4.453125 L 35.09375 -2.59375 L 35.453125 -1.453125 L 35.296875 -0.25 L 33.90625 0 L 32.34375 0.046875 L 31.40625 -0.046875 Z M 18.15625 -12.34375 L 20.15625 -12.40625 L 20.90625 -12.796875 L 21.09375 -13.703125 L 18.75 -19.203125 L 18.046875 -19.59375 L 17.5 -19.15625 L 15.15625 -13.75 L 15.203125 -12.796875 L 16 -12.453125 L 17.15625 -12.546875 Z M 18.15625 -12.34375 "/></g></g></g><g fill="#38b6ff" fill-opacity="0.4"><g transform="translate(61.431328, 242.188485)"><g><path d="M 3.703125 -1.546875 L 3.65625 -2.5 L 3.796875 -3.453125 L 3.59375 -4.40625 L 3.84375 -5.40625 L 3.703125 -8.546875 L 3.84375 -10.546875 L 3.703125 -11.5 L 3.703125 -13.59375 L 3.796875 -14.546875 L 3.65625 -16.046875 L 3.84375 -17.40625 L 3.703125 -19.453125 L 3.796875 -20.546875 L 3.703125 -21.453125 L 3.796875 -22.453125 L 3.796875 -27.546875 L 3.65625 -28.59375 L 3.65625 -29.546875 L 3.796875 -30.453125 L 3.796875 -32.5 L 3.90625 -33.546875 L 4.40625 -34.5 L 5.75 -34.953125 L 20.703125 -34.90625 L 21.59375 -34.703125 L 22.59375 -34.296875 L 23.65625 -34.09375 L 25.453125 -33.15625 L 26.953125 -32.15625 L 27.796875 -31.40625 L 28.34375 -30.65625 L 29 -29.953125 L 29.65625 -29.09375 L 30.65625 -27.296875 L 31.546875 -23.40625 L 31.5 -20.453125 L 31.40625 -19.546875 L 30.953125 -17.5 L 30.59375 -16.59375 L 30.15625 -15.703125 L 28.546875 -13.296875 L 27.046875 -11.84375 L 26.25 -11.25 L 24.546875 -10.203125 L 21.65625 -9.34375 L 19.59375 -8.953125 L 17 -8.90625 L 15.5 -9.046875 L 14.40625 -8.90625 L 13.046875 -8.40625 L 12.703125 -7.546875 L 12.703125 -6.5 L 12.796875 -5.40625 L 12.65625 -4.5 L 12.75 -3.546875 L 12.703125 -1.546875 L 12.25 -0.5 L 11.25 0.046875 L 10.203125 0.046875 L 9.09375 -0.046875 L 6.15625 0 L 5.15625 -0.09375 L 4.09375 -0.5 Z M 14.296875 -17.046875 L 15.453125 -16.953125 L 19.546875 -17.203125 L 20.34375 -17.65625 L 21.15625 -18.203125 L 22.296875 -19.59375 L 22.84375 -21.90625 L 22.40625 -24.25 L 21.90625 -25.09375 L 21.09375 -25.84375 L 20.34375 -26.40625 L 19.5 -26.84375 L 15.5 -27.046875 L 14.25 -26.953125 L 13.25 -26.546875 L 12.65625 -25.453125 L 12.75 -18.5 L 13.34375 -17.5 Z M 14.296875 -17.046875 "/></g></g></g><g fill="#38b6ff" fill-opacity="0.4"><g transform="translate(94.326235, 242.188485)"><g><path d="M 3.703125 -1.546875 L 3.65625 -2.5 L 3.796875 -3.453125 L 3.59375 -4.40625 L 3.84375 -5.40625 L 3.703125 -8.546875 L 3.84375 -10.546875 L 3.703125 -11.5 L 3.703125 -13.59375 L 3.796875 -14.546875 L 3.65625 -16.046875 L 3.84375 -17.40625 L 3.703125 -19.453125 L 3.796875 -20.546875 L 3.703125 -21.453125 L 3.796875 -22.453125 L 3.796875 -27.546875 L 3.65625 -28.59375 L 3.65625 -29.546875 L 3.796875 -30.453125 L 3.796875 -32.5 L 3.90625 -33.546875 L 4.40625 -34.5 L 5.75 -34.953125 L 20.703125 -34.90625 L 21.59375 -34.703125 L 22.59375 -34.296875 L 23.65625 -34.09375 L 25.453125 -33.15625 L 26.953125 -32.15625 L 27.796875 -31.40625 L 28.34375 -30.65625 L 29 -29.953125 L 29.65625 -29.09375 L 30.65625 -27.296875 L 31.546875 -23.40625 L 31.5 -20.453125 L 31.40625 -19.546875 L 30.953125 -17.5 L 30.59375 -16.59375 L 30.15625 -15.703125 L 28.546875 -13.296875 L 27.046875 -11.84375 L 26.25 -11.25 L 24.546875 -10.203125 L 21.65625 -9.34375 L 19.59375 -8.953125 L 17 -8.90625 L 15.5 -9.046875 L 14.40625 -8.90625 L 13.046875 -8.40625 L 12.703125 -7.546875 L 12.703125 -6.5 L 12.796875 -5.40625 L 12.65625 -4.5 L 12.75 -3.546875 L 12.703125 -1.546875 L 12.25 -0.5 L 11.25 0.046875 L 10.203125 0.046875 L 9.09375 -0.046875 L 6.15625 0 L 5.15625 -0.09375 L 4.09375 -0.5 Z M 14.296875 -17.046875 L 15.453125 -16.953125 L 19.546875 -17.203125 L 20.34375 -17.65625 L 21.15625 -18.203125 L 22.296875 -19.59375 L 22.84375 -21.90625 L 22.40625 -24.25 L 21.90625 -25.09375 L 21.09375 -25.84375 L 20.34375 -26.40625 L 19.5 -26.84375 L 15.5 -27.046875 L 14.25 -26.953125 L 13.25 -26.546875 L 12.65625 -25.453125 L 12.75 -18.5 L 13.34375 -17.5 Z M 14.296875 -17.046875 "/></g></g></g><g fill="#38b6ff" fill-opacity="0.4"><g transform="translate(127.221142, 242.188485)"><g><path d="M 11.5 -1.40625 L 11.59375 -2.453125 L 11.34375 -4.5 L 11.40625 -6.40625 L 11.5 -7.296875 L 11.453125 -8.25 L 11.34375 -9.25 L 11.40625 -13.203125 L 11.15625 -14.65625 L 10.75 -15.953125 L 6.296875 -22.953125 L 5.90625 -23.796875 L 0.5 -32.34375 L 0 -33.546875 L 0.09375 -34.65625 L 1.203125 -34.953125 L 7.796875 -35.046875 L 9.046875 -34.5 L 10.15625 -33.703125 L 10.546875 -32.703125 L 11.09375 -31.84375 L 13.59375 -27.453125 L 13.90625 -26.453125 L 14.34375 -25.546875 L 15.5 -23.75 L 16.203125 -23.84375 L 17.84375 -26.546875 L 18.59375 -28.34375 L 19.75 -30 L 20.046875 -30.953125 L 20.703125 -31.90625 L 21.546875 -33.59375 L 22.59375 -34.546875 L 23.84375 -35.046875 L 24.796875 -34.953125 L 26.703125 -34.953125 L 27.75 -35.09375 L 29.703125 -34.953125 L 30.703125 -35.09375 L 31.65625 -34.703125 L 31.796875 -33.5 L 31.09375 -32.296875 L 30.75 -31.40625 L 30.15625 -30.65625 L 24.40625 -21.15625 L 23.15625 -19.5 L 22.59375 -18.65625 L 22.203125 -17.703125 L 20.453125 -14.65625 L 20.203125 -13.203125 L 20.40625 -12.296875 L 20.25 -9.40625 L 20.40625 -8.34375 L 20.15625 -5.296875 L 20.203125 -4.40625 L 20.15625 -3.453125 L 20.25 -2.40625 L 20.25 -1.546875 L 19.75 -0.546875 L 18.25 -0.046875 L 16.84375 0 L 15.796875 -0.046875 L 14.796875 0.046875 L 13 -0.046875 L 12.046875 -0.546875 Z M 11.5 -1.40625 "/></g></g></g><g fill="#38b6ff" fill-opacity="0.4"><g transform="translate(159.016214, 242.188485)"><g/></g></g><g fill="#38b6ff" fill-opacity="0.4"><g transform="translate(172.564117, 242.188485)"><g><path d="M 3.796875 -1.40625 L 3.703125 -6.5 L 3.796875 -7.5 L 3.65625 -8.40625 L 3.796875 -9.40625 L 3.703125 -10.5 L 3.84375 -12.84375 L 3.75 -14 L 3.84375 -15.546875 L 3.703125 -16.5 L 3.703125 -19.40625 L 3.796875 -20.453125 L 3.59375 -23.5 L 3.796875 -24.5 L 3.703125 -25.34375 L 3.84375 -26.453125 L 3.59375 -29.453125 L 3.75 -30.40625 L 3.65625 -31.5 L 3.65625 -32.453125 L 3.796875 -33.546875 L 4.34375 -34.40625 L 5.90625 -34.84375 L 6.84375 -34.953125 L 7.84375 -34.84375 L 10.796875 -34.953125 L 12.34375 -34.453125 L 12.953125 -33.40625 L 12.90625 -32.546875 L 13.046875 -27.59375 L 12.953125 -26.703125 L 12.953125 -23.703125 L 13.34375 -22.75 L 14.40625 -22.296875 L 19.25 -22.34375 L 20.15625 -22.25 L 22.15625 -22.25 L 23 -22.75 L 23.546875 -23.75 L 23.546875 -26.65625 L 23.75 -27.5 L 23.65625 -32.953125 L 24.046875 -34.40625 L 25.546875 -34.84375 L 26.546875 -34.84375 L 28.15625 -35 L 30.703125 -34.953125 L 32.25 -34.453125 L 32.75 -33.453125 L 32.84375 -32.453125 L 32.65625 -31.453125 L 32.75 -30.5 L 32.953125 -29.546875 L 32.703125 -25.40625 L 32.84375 -20.5 L 32.75 -19.40625 L 32.796875 -17.5 L 32.65625 -16.453125 L 32.65625 -15.453125 L 32.75 -14.40625 L 32.703125 -13.40625 L 32.90625 -11.5 L 32.90625 -3.453125 L 32.703125 -1.40625 L 32.15625 -0.453125 L 31.15625 0.09375 L 27.703125 0.09375 L 26.203125 -0.046875 L 25.203125 0.046875 L 24.203125 -0.453125 L 23.703125 -1.5 L 23.546875 -3.453125 L 23.75 -4.953125 L 23.546875 -8.5 L 23.703125 -9.453125 L 23.546875 -12.5 L 23.046875 -13.5 L 22.15625 -14 L 21.203125 -14 L 20.203125 -14.09375 L 19.203125 -14 L 16.25 -14 L 15.34375 -14.09375 L 14.296875 -14.09375 L 13.296875 -13.5 L 12.796875 -12.453125 L 12.953125 -8.5 L 12.84375 -7.453125 L 12.90625 -6.34375 L 12.796875 -5.40625 L 12.90625 -4.40625 L 12.796875 -3.5 L 12.953125 -2.40625 L 12.90625 -1.40625 L 12.5 -0.40625 L 11.40625 0.046875 L 10.34375 0.15625 L 9.296875 0 L 7.84375 -0.046875 L 6.296875 0.09375 L 5.34375 0.09375 L 4.203125 -0.34375 Z M 3.796875 -1.40625 "/></g></g></g><g fill="#38b6ff" fill-opacity="0.4"><g transform="translate(209.158452, 242.188485)"><g><path d="M 3.59375 -1.453125 L 3.796875 -2.453125 L 3.84375 -3.453125 L 3.75 -5.40625 L 3.75 -6.40625 L 3.65625 -7.546875 L 3.796875 -8.453125 L 3.75 -9.40625 L 3.84375 -10.5 L 3.703125 -11.546875 L 3.796875 -13.546875 L 3.65625 -15.5 L 3.796875 -16.546875 L 3.796875 -25.5 L 3.703125 -26.40625 L 3.796875 -27.453125 L 3.59375 -30 L 3.796875 -31.453125 L 3.703125 -33.453125 L 4.203125 -34.546875 L 5.65625 -34.90625 L 12.203125 -35.046875 L 13.09375 -34.953125 L 15.046875 -35 L 16.046875 -34.90625 L 18.25 -35 L 19.25 -34.84375 L 20.15625 -34.953125 L 24.15625 -34.90625 L 25.203125 -34.453125 L 25.703125 -33.453125 L 25.546875 -32.5 L 25.5 -31.40625 L 25.65625 -30.453125 L 25.75 -28.40625 L 25.203125 -27.5 L 24.15625 -26.953125 L 14.546875 -26.90625 L 13 -26.453125 L 12.5 -25 L 12.59375 -23.453125 L 13.203125 -22.546875 L 14.046875 -22 L 18 -22.046875 L 19.15625 -21.953125 L 20.203125 -21.953125 L 21.203125 -22.046875 L 23.203125 -22 L 24.046875 -21.453125 L 24.5 -20.5 L 24.59375 -19.5 L 24.5 -15.546875 L 24 -14.59375 L 23 -14.046875 L 22.09375 -14 L 21.046875 -14.09375 L 19.703125 -14 L 17.046875 -14.15625 L 16.046875 -14.046875 L 14.09375 -14.046875 L 13.203125 -13.5 L 12.75 -12.453125 L 12.703125 -10 L 13.15625 -8.453125 L 14.203125 -7.84375 L 15.296875 -7.953125 L 16.40625 -7.84375 L 17.34375 -8 L 23.953125 -7.90625 L 25.453125 -7.40625 L 26.09375 -6.40625 L 26 -5.453125 L 26.046875 -2.34375 L 25.953125 -1.40625 L 25.5 -0.453125 L 24.453125 0.046875 L 23.5 0.15625 L 20.453125 -0.046875 L 17.40625 0.09375 L 16.5 -0.046875 L 5.203125 0.046875 L 4.25 -0.5 Z M 3.59375 -1.453125 "/></g></g></g><g fill="#38b6ff" fill-opacity="0.4"><g transform="translate(237.804019, 242.188485)"><g><path d="M 3.75 -1.453125 L 3.65625 -2.5 L 3.84375 -3.453125 L 3.75 -4.453125 L 3.796875 -10.546875 L 3.703125 -11.453125 L 3.65625 -13.453125 L 3.796875 -14.453125 L 3.65625 -16.453125 L 3.796875 -17.40625 L 3.65625 -19.546875 L 3.796875 -20.5 L 3.703125 -21.5 L 3.84375 -22.40625 L 3.703125 -23.453125 L 3.796875 -24.453125 L 3.75 -25.40625 L 3.90625 -26.5 L 3.796875 -27.453125 L 3.65625 -28.453125 L 3.796875 -29.5 L 3.90625 -30.453125 L 3.59375 -33.046875 L 4.25 -34.40625 L 5.703125 -34.953125 L 10.90625 -35.046875 L 12.203125 -34.453125 L 12.703125 -32.953125 L 12.796875 -30.5 L 12.703125 -29.40625 L 12.84375 -21.59375 L 12.703125 -20.546875 L 12.84375 -19.453125 L 12.703125 -18.046875 L 12.75 -15.546875 L 12.65625 -14.5 L 12.75 -13.5 L 12.703125 -12.40625 L 12.84375 -11.453125 L 12.796875 -9.59375 L 13.09375 -8.5 L 14.15625 -8.046875 L 22.953125 -7.953125 L 24.046875 -8.09375 L 24.84375 -7.59375 L 25.5 -6.5 L 25.34375 -5.546875 L 25.5 -4.453125 L 25.40625 -3.546875 L 25.34375 -2.546875 L 25.453125 -1.453125 L 24.90625 -0.546875 L 23.5 -0.046875 L 5.796875 0.046875 L 4.203125 -0.546875 Z M 3.75 -1.453125 "/></g></g></g><g fill="#38b6ff" fill-opacity="0.4"><g transform="translate(264.699853, 242.188485)"><g><path d="M 3.703125 -1.546875 L 3.65625 -2.5 L 3.796875 -3.453125 L 3.59375 -4.40625 L 3.84375 -5.40625 L 3.703125 -8.546875 L 3.84375 -10.546875 L 3.703125 -11.5 L 3.703125 -13.59375 L 3.796875 -14.546875 L 3.65625 -16.046875 L 3.84375 -17.40625 L 3.703125 -19.453125 L 3.796875 -20.546875 L 3.703125 -21.453125 L 3.796875 -22.453125 L 3.796875 -27.546875 L 3.65625 -28.59375 L 3.65625 -29.546875 L 3.796875 -30.453125 L 3.796875 -32.5 L 3.90625 -33.546875 L 4.40625 -34.5 L 5.75 -34.953125 L 20.703125 -34.90625 L 21.59375 -34.703125 L 22.59375 -34.296875 L 23.65625 -34.09375 L 25.453125 -33.15625 L 26.953125 -32.15625 L 27.796875 -31.40625 L 28.34375 -30.65625 L 29 -29.953125 L 29.65625 -29.09375 L 30.65625 -27.296875 L 31.546875 -23.40625 L 31.5 -20.453125 L 31.40625 -19.546875 L 30.953125 -17.5 L 30.59375 -16.59375 L 30.15625 -15.703125 L 28.546875 -13.296875 L 27.046875 -11.84375 L 26.25 -11.25 L 24.546875 -10.203125 L 21.65625 -9.34375 L 19.59375 -8.953125 L 17 -8.90625 L 15.5 -9.046875 L 14.40625 -8.90625 L 13.046875 -8.40625 L 12.703125 -7.546875 L 12.703125 -6.5 L 12.796875 -5.40625 L 12.65625 -4.5 L 12.75 -3.546875 L 12.703125 -1.546875 L 12.25 -0.5 L 11.25 0.046875 L 10.203125 0.046875 L 9.09375 -0.046875 L 6.15625 0 L 5.15625 -0.09375 L 4.09375 -0.5 Z M 14.296875 -17.046875 L 15.453125 -16.953125 L 19.546875 -17.203125 L 20.34375 -17.65625 L 21.15625 -18.203125 L 22.296875 -19.59375 L 22.84375 -21.90625 L 22.40625 -24.25 L 21.90625 -25.09375 L 21.09375 -25.84375 L 20.34375 -26.40625 L 19.5 -26.84375 L 15.5 -27.046875 L 14.25 -26.953125 L 13.25 -26.546875 L 12.65625 -25.453125 L 12.75 -18.5 L 13.34375 -17.5 Z M 14.296875 -17.046875 "/></g></g></g><g fill="#38b6ff" fill-opacity="0.4"><g transform="translate(297.594747, 242.188485)"><g><path d="M 3.59375 -1.453125 L 3.796875 -2.453125 L 3.84375 -3.453125 L 3.75 -5.40625 L 3.75 -6.40625 L 3.65625 -7.546875 L 3.796875 -8.453125 L 3.75 -9.40625 L 3.84375 -10.5 L 3.703125 -11.546875 L 3.796875 -13.546875 L 3.65625 -15.5 L 3.796875 -16.546875 L 3.796875 -25.5 L 3.703125 -26.40625 L 3.796875 -27.453125 L 3.59375 -30 L 3.796875 -31.453125 L 3.703125 -33.453125 L 4.203125 -34.546875 L 5.65625 -34.90625 L 12.203125 -35.046875 L 13.09375 -34.953125 L 15.046875 -35 L 16.046875 -34.90625 L 18.25 -35 L 19.25 -34.84375 L 20.15625 -34.953125 L 24.15625 -34.90625 L 25.203125 -34.453125 L 25.703125 -33.453125 L 25.546875 -32.5 L 25.5 -31.40625 L 25.65625 -30.453125 L 25.75 -28.40625 L 25.203125 -27.5 L 24.15625 -26.953125 L 14.546875 -26.90625 L 13 -26.453125 L 12.5 -25 L 12.59375 -23.453125 L 13.203125 -22.546875 L 14.046875 -22 L 18 -22.046875 L 19.15625 -21.953125 L 20.203125 -21.953125 L 21.203125 -22.046875 L 23.203125 -22 L 24.046875 -21.453125 L 24.5 -20.5 L 24.59375 -19.5 L 24.5 -15.546875 L 24 -14.59375 L 23 -14.046875 L 22.09375 -14 L 21.046875 -14.09375 L 19.703125 -14 L 17.046875 -14.15625 L 16.046875 -14.046875 L 14.09375 -14.046875 L 13.203125 -13.5 L 12.75 -12.453125 L 12.703125 -10 L 13.15625 -8.453125 L 14.203125 -7.84375 L 15.296875 -7.953125 L 16.40625 -7.84375 L 17.34375 -8 L 23.953125 -7.90625 L 25.453125 -7.40625 L 26.09375 -6.40625 L 26 -5.453125 L 26.046875 -2.34375 L 25.953125 -1.40625 L 25.5 -0.453125 L 24.453125 0.046875 L 23.5 0.15625 L 20.453125 -0.046875 L 17.40625 0.09375 L 16.5 -0.046875 L 5.203125 0.046875 L 4.25 -0.5 Z M 3.59375 -1.453125 "/></g></g></g><g fill="#38b6ff" fill-opacity="0.4"><g transform="translate(326.240314, 242.188485)"><g><path d="M 3.84375 -1.59375 L 3.703125 -5.5 L 3.796875 -6.546875 L 3.59375 -9.453125 L 3.75 -11.5 L 3.59375 -12.59375 L 3.65625 -14.5 L 3.75 -15.546875 L 3.75 -18.046875 L 3.59375 -19.5 L 3.75 -33.5 L 4.15625 -34.546875 L 5.09375 -35 L 6.203125 -34.953125 L 7.15625 -35.09375 L 9.203125 -34.90625 L 10.15625 -35.046875 L 13.15625 -34.953125 L 14 -35.046875 L 15.09375 -34.953125 L 16.09375 -35.046875 L 17.203125 -35 L 18.65625 -35.046875 L 19.90625 -34.953125 L 24.046875 -34.09375 L 25.796875 -33.203125 L 28.296875 -31.296875 L 28.75 -30.546875 L 29.453125 -29.796875 L 30.796875 -27.046875 L 31.046875 -26.046875 L 31.203125 -25.09375 L 31.453125 -24.15625 L 31.40625 -20.203125 L 30.84375 -18.296875 L 30.5 -17.453125 L 29.953125 -16.546875 L 29.59375 -15.59375 L 29 -14.75 L 27.59375 -13.40625 L 27.046875 -12.34375 L 27.203125 -11.15625 L 28.703125 -8.546875 L 29.34375 -7.75 L 29.84375 -6.84375 L 30.453125 -5.953125 L 30.90625 -5.09375 L 32.5 -2.65625 L 33.15625 -1.40625 L 32.953125 -0.34375 L 31.90625 -0.09375 L 30.796875 0 L 28.796875 0 L 27.796875 -0.09375 L 26.703125 0 L 24.90625 -0.09375 L 23.65625 -0.40625 L 22.65625 -1.296875 L 22.046875 -2.09375 L 21.59375 -2.953125 L 20.953125 -3.90625 L 19.546875 -6.40625 L 19.203125 -7.34375 L 17.90625 -9.09375 L 17.09375 -9.953125 L 15.84375 -10.34375 L 14.953125 -10.296875 L 14.046875 -10.296875 L 13.046875 -9.796875 L 12.59375 -8.796875 L 12.703125 -5.703125 L 12.546875 -3.546875 L 12.75 -2.5 L 12.65625 -1.453125 L 12.296875 -0.5 L 10.75 0 L 9.25 0 L 8.203125 -0.09375 L 6.15625 0.046875 L 5.203125 0 L 4.203125 -0.5 Z M 14.046875 -18.40625 L 15.15625 -18.40625 L 16.15625 -18.25 L 20.046875 -18.59375 L 20.796875 -18.953125 L 21.40625 -19.546875 L 21.953125 -20.40625 L 22.34375 -21.40625 L 22.5 -22.75 L 22.40625 -24.203125 L 22.046875 -25 L 21.546875 -25.75 L 20 -26.703125 L 17.703125 -27 L 14.953125 -27.046875 L 14.15625 -27 L 13.15625 -26.5 L 12.546875 -25.5 L 12.703125 -19.90625 L 13.203125 -18.84375 Z M 14.046875 -18.40625 "/></g></g></g><g fill="#38b6ff" fill-opacity="1"><g transform="translate(22.927228, 239.978769)"><g><path d="M 29.5 0.09375 L 28.453125 0 L 27.296875 -0.5 L 26.296875 -1.25 L 26 -2.15625 L 25.546875 -3.09375 L 24.59375 -3.90625 L 23.5 -4.453125 L 22.40625 -4.296875 L 21.5 -4.40625 L 16.59375 -4.34375 L 15.703125 -4.5 L 13.59375 -4.296875 L 12.65625 -4.453125 L 11.59375 -3.90625 L 10.65625 -2.953125 L 9.75 -1.296875 L 8.796875 -0.40625 L 7.65625 -0.046875 L 4.84375 0.046875 L 3.84375 -0.046875 L 1.90625 0.046875 L 0.90625 -0.25 L 0.65625 -1.5 L 0.953125 -2.5 L 1.953125 -4.5 L 2.203125 -5.40625 L 2.75 -6.09375 L 3.5 -8.09375 L 4.40625 -9.703125 L 4.75 -10.703125 L 5.25 -11.453125 L 5.546875 -12.546875 L 10.65625 -23.25 L 10.953125 -24.15625 L 11.5 -25.09375 L 11.75 -26.09375 L 12.296875 -26.84375 L 14.296875 -31.453125 L 14.75 -32.15625 L 15.09375 -33.15625 L 15.546875 -34 L 16.453125 -34.84375 L 18.046875 -35.40625 L 19.703125 -34.90625 L 20.546875 -34 L 21.5 -32.25 L 21.796875 -31.34375 L 22.34375 -30.453125 L 22.65625 -29.453125 L 25.953125 -22.5 L 26.296875 -21.453125 L 27.34375 -19.59375 L 27.65625 -18.796875 L 28.09375 -18.046875 L 28.40625 -16.953125 L 28.90625 -16 L 29.40625 -15.25 L 31.296875 -10.703125 L 32.296875 -8.90625 L 33 -7.046875 L 34.34375 -4.453125 L 35.09375 -2.59375 L 35.453125 -1.453125 L 35.296875 -0.25 L 33.90625 0 L 32.34375 0.046875 L 31.40625 -0.046875 Z M 18.15625 -12.34375 L 20.15625 -12.40625 L 20.90625 -12.796875 L 21.09375 -13.703125 L 18.75 -19.203125 L 18.046875 -19.59375 L 17.5 -19.15625 L 15.15625 -13.75 L 15.203125 -12.796875 L 16 -12.453125 L 17.15625 -12.546875 Z M 18.15625 -12.34375 "/></g></g></g><g fill="#38b6ff" fill-opacity="1"><g transform="translate(59.221613, 239.978769)"><g><path d="M 3.703125 -1.546875 L 3.65625 -2.5 L 3.796875 -3.453125 L 3.59375 -4.40625 L 3.84375 -5.40625 L 3.703125 -8.546875 L 3.84375 -10.546875 L 3.703125 -11.5 L 3.703125 -13.59375 L 3.796875 -14.546875 L 3.65625 -16.046875 L 3.84375 -17.40625 L 3.703125 -19.453125 L 3.796875 -20.546875 L 3.703125 -21.453125 L 3.796875 -22.453125 L 3.796875 -27.546875 L 3.65625 -28.59375 L 3.65625 -29.546875 L 3.796875 -30.453125 L 3.796875 -32.5 L 3.90625 -33.546875 L 4.40625 -34.5 L 5.75 -34.953125 L 20.703125 -34.90625 L 21.59375 -34.703125 L 22.59375 -34.296875 L 23.65625 -34.09375 L 25.453125 -33.15625 L 26.953125 -32.15625 L 27.796875 -31.40625 L 28.34375 -30.65625 L 29 -29.953125 L 29.65625 -29.09375 L 30.65625 -27.296875 L 31.546875 -23.40625 L 31.5 -20.453125 L 31.40625 -19.546875 L 30.953125 -17.5 L 30.59375 -16.59375 L 30.15625 -15.703125 L 28.546875 -13.296875 L 27.046875 -11.84375 L 26.25 -11.25 L 24.546875 -10.203125 L 21.65625 -9.34375 L 19.59375 -8.953125 L 17 -8.90625 L 15.5 -9.046875 L 14.40625 -8.90625 L 13.046875 -8.40625 L 12.703125 -7.546875 L 12.703125 -6.5 L 12.796875 -5.40625 L 12.65625 -4.5 L 12.75 -3.546875 L 12.703125 -1.546875 L 12.25 -0.5 L 11.25 0.046875 L 10.203125 0.046875 L 9.09375 -0.046875 L 6.15625 0 L 5.15625 -0.09375 L 4.09375 -0.5 Z M 14.296875 -17.046875 L 15.453125 -16.953125 L 19.546875 -17.203125 L 20.34375 -17.65625 L 21.15625 -18.203125 L 22.296875 -19.59375 L 22.84375 -21.90625 L 22.40625 -24.25 L 21.90625 -25.09375 L 21.09375 -25.84375 L 20.34375 -26.40625 L 19.5 -26.84375 L 15.5 -27.046875 L 14.25 -26.953125 L 13.25 -26.546875 L 12.65625 -25.453125 L 12.75 -18.5 L 13.34375 -17.5 Z M 14.296875 -17.046875 "/></g></g></g><g fill="#38b6ff" fill-opacity="1"><g transform="translate(92.116519, 239.978769)"><g><path d="M 3.703125 -1.546875 L 3.65625 -2.5 L 3.796875 -3.453125 L 3.59375 -4.40625 L 3.84375 -5.40625 L 3.703125 -8.546875 L 3.84375 -10.546875 L 3.703125 -11.5 L 3.703125 -13.59375 L 3.796875 -14.546875 L 3.65625 -16.046875 L 3.84375 -17.40625 L 3.703125 -19.453125 L 3.796875 -20.546875 L 3.703125 -21.453125 L 3.796875 -22.453125 L 3.796875 -27.546875 L 3.65625 -28.59375 L 3.65625 -29.546875 L 3.796875 -30.453125 L 3.796875 -32.5 L 3.90625 -33.546875 L 4.40625 -34.5 L 5.75 -34.953125 L 20.703125 -34.90625 L 21.59375 -34.703125 L 22.59375 -34.296875 L 23.65625 -34.09375 L 25.453125 -33.15625 L 26.953125 -32.15625 L 27.796875 -31.40625 L 28.34375 -30.65625 L 29 -29.953125 L 29.65625 -29.09375 L 30.65625 -27.296875 L 31.546875 -23.40625 L 31.5 -20.453125 L 31.40625 -19.546875 L 30.953125 -17.5 L 30.59375 -16.59375 L 30.15625 -15.703125 L 28.546875 -13.296875 L 27.046875 -11.84375 L 26.25 -11.25 L 24.546875 -10.203125 L 21.65625 -9.34375 L 19.59375 -8.953125 L 17 -8.90625 L 15.5 -9.046875 L 14.40625 -8.90625 L 13.046875 -8.40625 L 12.703125 -7.546875 L 12.703125 -6.5 L 12.796875 -5.40625 L 12.65625 -4.5 L 12.75 -3.546875 L 12.703125 -1.546875 L 12.25 -0.5 L 11.25 0.046875 L 10.203125 0.046875 L 9.09375 -0.046875 L 6.15625 0 L 5.15625 -0.09375 L 4.09375 -0.5 Z M 14.296875 -17.046875 L 15.453125 -16.953125 L 19.546875 -17.203125 L 20.34375 -17.65625 L 21.15625 -18.203125 L 22.296875 -19.59375 L 22.84375 -21.90625 L 22.40625 -24.25 L 21.90625 -25.09375 L 21.09375 -25.84375 L 20.34375 -26.40625 L 19.5 -26.84375 L 15.5 -27.046875 L 14.25 -26.953125 L 13.25 -26.546875 L 12.65625 -25.453125 L 12.75 -18.5 L 13.34375 -17.5 Z M 14.296875 -17.046875 "/></g></g></g><g fill="#38b6ff" fill-opacity="1"><g transform="translate(125.011426, 239.978769)"><g><path d="M 11.5 -1.40625 L 11.59375 -2.453125 L 11.34375 -4.5 L 11.40625 -6.40625 L 11.5 -7.296875 L 11.453125 -8.25 L 11.34375 -9.25 L 11.40625 -13.203125 L 11.15625 -14.65625 L 10.75 -15.953125 L 6.296875 -22.953125 L 5.90625 -23.796875 L 0.5 -32.34375 L 0 -33.546875 L 0.09375 -34.65625 L 1.203125 -34.953125 L 7.796875 -35.046875 L 9.046875 -34.5 L 10.15625 -33.703125 L 10.546875 -32.703125 L 11.09375 -31.84375 L 13.59375 -27.453125 L 13.90625 -26.453125 L 14.34375 -25.546875 L 15.5 -23.75 L 16.203125 -23.84375 L 17.84375 -26.546875 L 18.59375 -28.34375 L 19.75 -30 L 20.046875 -30.953125 L 20.703125 -31.90625 L 21.546875 -33.59375 L 22.59375 -34.546875 L 23.84375 -35.046875 L 24.796875 -34.953125 L 26.703125 -34.953125 L 27.75 -35.09375 L 29.703125 -34.953125 L 30.703125 -35.09375 L 31.65625 -34.703125 L 31.796875 -33.5 L 31.09375 -32.296875 L 30.75 -31.40625 L 30.15625 -30.65625 L 24.40625 -21.15625 L 23.15625 -19.5 L 22.59375 -18.65625 L 22.203125 -17.703125 L 20.453125 -14.65625 L 20.203125 -13.203125 L 20.40625 -12.296875 L 20.25 -9.40625 L 20.40625 -8.34375 L 20.15625 -5.296875 L 20.203125 -4.40625 L 20.15625 -3.453125 L 20.25 -2.40625 L 20.25 -1.546875 L 19.75 -0.546875 L 18.25 -0.046875 L 16.84375 0 L 15.796875 -0.046875 L 14.796875 0.046875 L 13 -0.046875 L 12.046875 -0.546875 Z M 11.5 -1.40625 "/></g></g></g><g fill="#38b6ff" fill-opacity="1"><g transform="translate(156.806498, 239.978769)"><g/></g></g><g fill="#38b6ff" fill-opacity="1"><g transform="translate(170.354402, 239.978769)"><g><path d="M 3.796875 -1.40625 L 3.703125 -6.5 L 3.796875 -7.5 L 3.65625 -8.40625 L 3.796875 -9.40625 L 3.703125 -10.5 L 3.84375 -12.84375 L 3.75 -14 L 3.84375 -15.546875 L 3.703125 -16.5 L 3.703125 -19.40625 L 3.796875 -20.453125 L 3.59375 -23.5 L 3.796875 -24.5 L 3.703125 -25.34375 L 3.84375 -26.453125 L 3.59375 -29.453125 L 3.75 -30.40625 L 3.65625 -31.5 L 3.65625 -32.453125 L 3.796875 -33.546875 L 4.34375 -34.40625 L 5.90625 -34.84375 L 6.84375 -34.953125 L 7.84375 -34.84375 L 10.796875 -34.953125 L 12.34375 -34.453125 L 12.953125 -33.40625 L 12.90625 -32.546875 L 13.046875 -27.59375 L 12.953125 -26.703125 L 12.953125 -23.703125 L 13.34375 -22.75 L 14.40625 -22.296875 L 19.25 -22.34375 L 20.15625 -22.25 L 22.15625 -22.25 L 23 -22.75 L 23.546875 -23.75 L 23.546875 -26.65625 L 23.75 -27.5 L 23.65625 -32.953125 L 24.046875 -34.40625 L 25.546875 -34.84375 L 26.546875 -34.84375 L 28.15625 -35 L 30.703125 -34.953125 L 32.25 -34.453125 L 32.75 -33.453125 L 32.84375 -32.453125 L 32.65625 -31.453125 L 32.75 -30.5 L 32.953125 -29.546875 L 32.703125 -25.40625 L 32.84375 -20.5 L 32.75 -19.40625 L 32.796875 -17.5 L 32.65625 -16.453125 L 32.65625 -15.453125 L 32.75 -14.40625 L 32.703125 -13.40625 L 32.90625 -11.5 L 32.90625 -3.453125 L 32.703125 -1.40625 L 32.15625 -0.453125 L 31.15625 0.09375 L 27.703125 0.09375 L 26.203125 -0.046875 L 25.203125 0.046875 L 24.203125 -0.453125 L 23.703125 -1.5 L 23.546875 -3.453125 L 23.75 -4.953125 L 23.546875 -8.5 L 23.703125 -9.453125 L 23.546875 -12.5 L 23.046875 -13.5 L 22.15625 -14 L 21.203125 -14 L 20.203125 -14.09375 L 19.203125 -14 L 16.25 -14 L 15.34375 -14.09375 L 14.296875 -14.09375 L 13.296875 -13.5 L 12.796875 -12.453125 L 12.953125 -8.5 L 12.84375 -7.453125 L 12.90625 -6.34375 L 12.796875 -5.40625 L 12.90625 -4.40625 L 12.796875 -3.5 L 12.953125 -2.40625 L 12.90625 -1.40625 L 12.5 -0.40625 L 11.40625 0.046875 L 10.34375 0.15625 L 9.296875 0 L 7.84375 -0.046875 L 6.296875 0.09375 L 5.34375 0.09375 L 4.203125 -0.34375 Z M 3.796875 -1.40625 "/></g></g></g><g fill="#38b6ff" fill-opacity="1"><g transform="translate(206.948736, 239.978769)"><g><path d="M 3.59375 -1.453125 L 3.796875 -2.453125 L 3.84375 -3.453125 L 3.75 -5.40625 L 3.75 -6.40625 L 3.65625 -7.546875 L 3.796875 -8.453125 L 3.75 -9.40625 L 3.84375 -10.5 L 3.703125 -11.546875 L 3.796875 -13.546875 L 3.65625 -15.5 L 3.796875 -16.546875 L 3.796875 -25.5 L 3.703125 -26.40625 L 3.796875 -27.453125 L 3.59375 -30 L 3.796875 -31.453125 L 3.703125 -33.453125 L 4.203125 -34.546875 L 5.65625 -34.90625 L 12.203125 -35.046875 L 13.09375 -34.953125 L 15.046875 -35 L 16.046875 -34.90625 L 18.25 -35 L 19.25 -34.84375 L 20.15625 -34.953125 L 24.15625 -34.90625 L 25.203125 -34.453125 L 25.703125 -33.453125 L 25.546875 -32.5 L 25.5 -31.40625 L 25.65625 -30.453125 L 25.75 -28.40625 L 25.203125 -27.5 L 24.15625 -26.953125 L 14.546875 -26.90625 L 13 -26.453125 L 12.5 -25 L 12.59375 -23.453125 L 13.203125 -22.546875 L 14.046875 -22 L 18 -22.046875 L 19.15625 -21.953125 L 20.203125 -21.953125 L 21.203125 -22.046875 L 23.203125 -22 L 24.046875 -21.453125 L 24.5 -20.5 L 24.59375 -19.5 L 24.5 -15.546875 L 24 -14.59375 L 23 -14.046875 L 22.09375 -14 L 21.046875 -14.09375 L 19.703125 -14 L 17.046875 -14.15625 L 16.046875 -14.046875 L 14.09375 -14.046875 L 13.203125 -13.5 L 12.75 -12.453125 L 12.703125 -10 L 13.15625 -8.453125 L 14.203125 -7.84375 L 15.296875 -7.953125 L 16.40625 -7.84375 L 17.34375 -8 L 23.953125 -7.90625 L 25.453125 -7.40625 L 26.09375 -6.40625 L 26 -5.453125 L 26.046875 -2.34375 L 25.953125 -1.40625 L 25.5 -0.453125 L 24.453125 0.046875 L 23.5 0.15625 L 20.453125 -0.046875 L 17.40625 0.09375 L 16.5 -0.046875 L 5.203125 0.046875 L 4.25 -0.5 Z M 3.59375 -1.453125 "/></g></g></g><g fill="#38b6ff" fill-opacity="1"><g transform="translate(235.594303, 239.978769)"><g><path d="M 3.75 -1.453125 L 3.65625 -2.5 L 3.84375 -3.453125 L 3.75 -4.453125 L 3.796875 -10.546875 L 3.703125 -11.453125 L 3.65625 -13.453125 L 3.796875 -14.453125 L 3.65625 -16.453125 L 3.796875 -17.40625 L 3.65625 -19.546875 L 3.796875 -20.5 L 3.703125 -21.5 L 3.84375 -22.40625 L 3.703125 -23.453125 L 3.796875 -24.453125 L 3.75 -25.40625 L 3.90625 -26.5 L 3.796875 -27.453125 L 3.65625 -28.453125 L 3.796875 -29.5 L 3.90625 -30.453125 L 3.59375 -33.046875 L 4.25 -34.40625 L 5.703125 -34.953125 L 10.90625 -35.046875 L 12.203125 -34.453125 L 12.703125 -32.953125 L 12.796875 -30.5 L 12.703125 -29.40625 L 12.84375 -21.59375 L 12.703125 -20.546875 L 12.84375 -19.453125 L 12.703125 -18.046875 L 12.75 -15.546875 L 12.65625 -14.5 L 12.75 -13.5 L 12.703125 -12.40625 L 12.84375 -11.453125 L 12.796875 -9.59375 L 13.09375 -8.5 L 14.15625 -8.046875 L 22.953125 -7.953125 L 24.046875 -8.09375 L 24.84375 -7.59375 L 25.5 -6.5 L 25.34375 -5.546875 L 25.5 -4.453125 L 25.40625 -3.546875 L 25.34375 -2.546875 L 25.453125 -1.453125 L 24.90625 -0.546875 L 23.5 -0.046875 L 5.796875 0.046875 L 4.203125 -0.546875 Z M 3.75 -1.453125 "/></g></g></g><g fill="#38b6ff" fill-opacity="1"><g transform="translate(262.490137, 239.978769)"><g><path d="M 3.703125 -1.546875 L 3.65625 -2.5 L 3.796875 -3.453125 L 3.59375 -4.40625 L 3.84375 -5.40625 L 3.703125 -8.546875 L 3.84375 -10.546875 L 3.703125 -11.5 L 3.703125 -13.59375 L 3.796875 -14.546875 L 3.65625 -16.046875 L 3.84375 -17.40625 L 3.703125 -19.453125 L 3.796875 -20.546875 L 3.703125 -21.453125 L 3.796875 -22.453125 L 3.796875 -27.546875 L 3.65625 -28.59375 L 3.65625 -29.546875 L 3.796875 -30.453125 L 3.796875 -32.5 L 3.90625 -33.546875 L 4.40625 -34.5 L 5.75 -34.953125 L 20.703125 -34.90625 L 21.59375 -34.703125 L 22.59375 -34.296875 L 23.65625 -34.09375 L 25.453125 -33.15625 L 26.953125 -32.15625 L 27.796875 -31.40625 L 28.34375 -30.65625 L 29 -29.953125 L 29.65625 -29.09375 L 30.65625 -27.296875 L 31.546875 -23.40625 L 31.5 -20.453125 L 31.40625 -19.546875 L 30.953125 -17.5 L 30.59375 -16.59375 L 30.15625 -15.703125 L 28.546875 -13.296875 L 27.046875 -11.84375 L 26.25 -11.25 L 24.546875 -10.203125 L 21.65625 -9.34375 L 19.59375 -8.953125 L 17 -8.90625 L 15.5 -9.046875 L 14.40625 -8.90625 L 13.046875 -8.40625 L 12.703125 -7.546875 L 12.703125 -6.5 L 12.796875 -5.40625 L 12.65625 -4.5 L 12.75 -3.546875 L 12.703125 -1.546875 L 12.25 -0.5 L 11.25 0.046875 L 10.203125 0.046875 L 9.09375 -0.046875 L 6.15625 0 L 5.15625 -0.09375 L 4.09375 -0.5 Z M 14.296875 -17.046875 L 15.453125 -16.953125 L 19.546875 -17.203125 L 20.34375 -17.65625 L 21.15625 -18.203125 L 22.296875 -19.59375 L 22.84375 -21.90625 L 22.40625 -24.25 L 21.90625 -25.09375 L 21.09375 -25.84375 L 20.34375 -26.40625 L 19.5 -26.84375 L 15.5 -27.046875 L 14.25 -26.953125 L 13.25 -26.546875 L 12.65625 -25.453125 L 12.75 -18.5 L 13.34375 -17.5 Z M 14.296875 -17.046875 "/></g></g></g><g fill="#38b6ff" fill-opacity="1"><g transform="translate(295.385031, 239.978769)"><g><path d="M 3.59375 -1.453125 L 3.796875 -2.453125 L 3.84375 -3.453125 L 3.75 -5.40625 L 3.75 -6.40625 L 3.65625 -7.546875 L 3.796875 -8.453125 L 3.75 -9.40625 L 3.84375 -10.5 L 3.703125 -11.546875 L 3.796875 -13.546875 L 3.65625 -15.5 L 3.796875 -16.546875 L 3.796875 -25.5 L 3.703125 -26.40625 L 3.796875 -27.453125 L 3.59375 -30 L 3.796875 -31.453125 L 3.703125 -33.453125 L 4.203125 -34.546875 L 5.65625 -34.90625 L 12.203125 -35.046875 L 13.09375 -34.953125 L 15.046875 -35 L 16.046875 -34.90625 L 18.25 -35 L 19.25 -34.84375 L 20.15625 -34.953125 L 24.15625 -34.90625 L 25.203125 -34.453125 L 25.703125 -33.453125 L 25.546875 -32.5 L 25.5 -31.40625 L 25.65625 -30.453125 L 25.75 -28.40625 L 25.203125 -27.5 L 24.15625 -26.953125 L 14.546875 -26.90625 L 13 -26.453125 L 12.5 -25 L 12.59375 -23.453125 L 13.203125 -22.546875 L 14.046875 -22 L 18 -22.046875 L 19.15625 -21.953125 L 20.203125 -21.953125 L 21.203125 -22.046875 L 23.203125 -22 L 24.046875 -21.453125 L 24.5 -20.5 L 24.59375 -19.5 L 24.5 -15.546875 L 24 -14.59375 L 23 -14.046875 L 22.09375 -14 L 21.046875 -14.09375 L 19.703125 -14 L 17.046875 -14.15625 L 16.046875 -14.046875 L 14.09375 -14.046875 L 13.203125 -13.5 L 12.75 -12.453125 L 12.703125 -10 L 13.15625 -8.453125 L 14.203125 -7.84375 L 15.296875 -7.953125 L 16.40625 -7.84375 L 17.34375 -8 L 23.953125 -7.90625 L 25.453125 -7.40625 L 26.09375 -6.40625 L 26 -5.453125 L 26.046875 -2.34375 L 25.953125 -1.40625 L 25.5 -0.453125 L 24.453125 0.046875 L 23.5 0.15625 L 20.453125 -0.046875 L 17.40625 0.09375 L 16.5 -0.046875 L 5.203125 0.046875 L 4.25 -0.5 Z M 3.59375 -1.453125 "/></g></g></g><g fill="#38b6ff" fill-opacity="1"><g transform="translate(324.030598, 239.978769)"><g><path d="M 3.84375 -1.59375 L 3.703125 -5.5 L 3.796875 -6.546875 L 3.59375 -9.453125 L 3.75 -11.5 L 3.59375 -12.59375 L 3.65625 -14.5 L 3.75 -15.546875 L 3.75 -18.046875 L 3.59375 -19.5 L 3.75 -33.5 L 4.15625 -34.546875 L 5.09375 -35 L 6.203125 -34.953125 L 7.15625 -35.09375 L 9.203125 -34.90625 L 10.15625 -35.046875 L 13.15625 -34.953125 L 14 -35.046875 L 15.09375 -34.953125 L 16.09375 -35.046875 L 17.203125 -35 L 18.65625 -35.046875 L 19.90625 -34.953125 L 24.046875 -34.09375 L 25.796875 -33.203125 L 28.296875 -31.296875 L 28.75 -30.546875 L 29.453125 -29.796875 L 30.796875 -27.046875 L 31.046875 -26.046875 L 31.203125 -25.09375 L 31.453125 -24.15625 L 31.40625 -20.203125 L 30.84375 -18.296875 L 30.5 -17.453125 L 29.953125 -16.546875 L 29.59375 -15.59375 L 29 -14.75 L 27.59375 -13.40625 L 27.046875 -12.34375 L 27.203125 -11.15625 L 28.703125 -8.546875 L 29.34375 -7.75 L 29.84375 -6.84375 L 30.453125 -5.953125 L 30.90625 -5.09375 L 32.5 -2.65625 L 33.15625 -1.40625 L 32.953125 -0.34375 L 31.90625 -0.09375 L 30.796875 0 L 28.796875 0 L 27.796875 -0.09375 L 26.703125 0 L 24.90625 -0.09375 L 23.65625 -0.40625 L 22.65625 -1.296875 L 22.046875 -2.09375 L 21.59375 -2.953125 L 20.953125 -3.90625 L 19.546875 -6.40625 L 19.203125 -7.34375 L 17.90625 -9.09375 L 17.09375 -9.953125 L 15.84375 -10.34375 L 14.953125 -10.296875 L 14.046875 -10.296875 L 13.046875 -9.796875 L 12.59375 -8.796875 L 12.703125 -5.703125 L 12.546875 -3.546875 L 12.75 -2.5 L 12.65625 -1.453125 L 12.296875 -0.5 L 10.75 0 L 9.25 0 L 8.203125 -0.09375 L 6.15625 0.046875 L 5.203125 0 L 4.203125 -0.5 Z M 14.046875 -18.40625 L 15.15625 -18.40625 L 16.15625 -18.25 L 20.046875 -18.59375 L 20.796875 -18.953125 L 21.40625 -19.546875 L 21.953125 -20.40625 L 22.34375 -21.40625 L 22.5 -22.75 L 22.40625 -24.203125 L 22.046875 -25 L 21.546875 -25.75 L 20 -26.703125 L 17.703125 -27 L 14.953125 -27.046875 L 14.15625 -27 L 13.15625 -26.5 L 12.546875 -25.5 L 12.703125 -19.90625 L 13.203125 -18.84375 Z M 14.046875 -18.40625 "/></g></g></g><g clip-path="url(#b0ee368141)"><g clip-path="url(#3394c8e4ff)"><g clip-path="url(#9d8cb9913e)"><path fill="#38b6ff" d="M 58.917969 49.230469 C 58.917969 49.230469 60.160156 55.316406 64.808594 53.691406 C 69.457031 52.066406 73.722656 51.621094 75.34375 51.21875 C 76.964844 50.820312 81.210938 51.285156 84.796875 50.328125 C 85.222656 50.214844 88.761719 48.285156 90.179688 45.433594 C 92.0625 41.660156 91.492188 40.351562 91.589844 37.816406 C 91.757812 33.539062 92.035156 30.898438 90.515625 28.332031 C 89.832031 27.179688 88.769531 26.109375 87.503906 25.675781 C 85.796875 25.09375 83.761719 24.546875 80.96875 25.132812 C 77.988281 25.757812 76.257812 26.234375 71.917969 26.4375 C 67.578125 26.636719 65.625 28.359375 63.320312 29.039062 C 61.015625 29.71875 59.054688 32.121094 57.128906 35.015625 C 55.316406 37.734375 58.917969 49.230469 58.917969 49.230469 " fill-opacity="1" fill-rule="nonzero"/></g></g></g><g clip-path="url(#2b3bc00de7)"><path fill="#feb823" d="M 34.296875 42.410156 C 33.210938 42.410156 32.320312 43.300781 32.320312 44.386719 C 32.320312 44.386719 32.320312 44.410156 32.320312 44.410156 C 32.421875 52.710938 32.816406 85.398438 32.296875 115.292969 C 31.679688 149.878906 35.386719 165.9375 35.386719 165.9375 L 148.414062 165.9375 C 148.414062 165.9375 153.355469 131.351562 152.117188 104.792969 C 150.882812 78.234375 152.117188 59.085938 147.796875 51.058594 C 143.472656 43.027344 90.972656 43.644531 75.53125 43.027344 C 62.585938 42.507812 40.96875 42.433594 34.296875 42.410156 Z M 34.296875 42.410156 " fill-opacity="1" fill-rule="nonzero"/></g><path fill="#ffffff" d="M 108.339844 59.167969 C 115.9375 76.429688 112.894531 94.128906 103.648438 103.660156 C 94.402344 113.1875 68.210938 131.90625 46.527344 97.859375 C 24.839844 63.8125 72.585938 32.71875 94.027344 45.859375 C 107.289062 53.984375 108.339844 59.167969 108.339844 59.167969 Z M 108.339844 59.167969 " fill-opacity="1" fill-rule="nonzero"/><path fill="#f9643f" d="M 224.835938 88.730469 C 210.742188 106.523438 205.644531 137.09375 224.835938 157.003906 C 244.03125 176.914062 275.890625 169.09375 298.378906 172.644531 C 320.871094 176.199219 348.601562 176.199219 354.273438 144.914062 C 359.976562 113.628906 346.453125 105.808594 308.035156 83.746094 C 269.617188 61.6875 251.882812 54.582031 224.835938 88.730469 Z M 224.835938 88.730469 " fill-opacity="1" fill-rule="nonzero"/><path fill="#ffffff" d="M 312.796875 87.976562 C 318.800781 101.617188 316.394531 115.601562 309.089844 123.132812 C 301.785156 130.664062 281.085938 145.453125 263.953125 118.550781 C 246.820312 91.648438 284.542969 67.078125 301.488281 77.460938 C 311.96875 83.878906 312.796875 87.976562 312.796875 87.976562 Z M 312.796875 87.976562 " fill-opacity="1" fill-rule="nonzero"/><g clip-path="url(#0408a862a1)"><g clip-path="url(#aed8da1405)"><g clip-path="url(#9e787842a0)"><path fill="#343434" d="M 91.738281 111.769531 C 81.410156 115.597656 71.199219 113.207031 65.964844 107.484375 C 60.730469 101.761719 50.734375 85.835938 71.339844 74.382812 C 91.941406 62.929688 108.402344 91.847656 99.992188 103.890625 C 94.796875 111.339844 91.738281 111.769531 91.738281 111.769531 Z M 91.738281 111.769531 " fill-opacity="1" fill-rule="nonzero"/></g></g></g><g clip-path="url(#9bed72886c)"><g clip-path="url(#7daa848c5b)"><g clip-path="url(#04d9967876)"><path fill="#343434" d="M 293.363281 129.753906 C 284.40625 133.074219 275.550781 131 271.011719 126.035156 C 266.472656 121.074219 257.800781 107.265625 275.671875 97.332031 C 293.542969 87.398438 307.816406 112.476562 300.523438 122.921875 C 296.015625 129.382812 293.363281 129.753906 293.363281 129.753906 Z M 293.363281 129.753906 " fill-opacity="1" fill-rule="nonzero"/></g></g></g><g clip-path="url(#c20877c9e6)"><path fill="#38b6ff" d="M 137.027344 180.339844 C 137.027344 180.339844 142.839844 183.289062 171.472656 183.757812 C 200.101562 184.222656 219.503906 182.792969 226.777344 182.046875 C 234.050781 181.304688 236.972656 180.339844 236.972656 180.339844 C 236.972656 180.339844 239.894531 110.289062 236.972656 96.070312 C 234.050781 81.851562 226.308594 58.457031 201.5625 50.742188 C 176.816406 43.023438 171.472656 49.609375 158.878906 59.917969 C 146.285156 70.222656 135.097656 135.640625 135.59375 155.566406 C 136.089844 175.488281 137.027344 180.339844 137.027344 180.339844 Z M 137.027344 180.339844 " fill-opacity="1" fill-rule="nonzero"/></g><path fill="#ffffff" d="M 218.589844 81.03125 C 226.1875 98.292969 223.144531 115.992188 213.902344 125.523438 C 204.65625 135.054688 178.460938 153.769531 156.777344 119.722656 C 135.09375 85.675781 182.835938 54.582031 204.28125 67.722656 C 217.542969 75.847656 218.589844 81.03125 218.589844 81.03125 Z M 218.589844 81.03125 " fill-opacity="1" fill-rule="nonzero"/><g clip-path="url(#1bdb1fafbf)"><g clip-path="url(#2e8d977c15)"><g clip-path="url(#94fe89826c)"><path fill="#343434" d="M 197.230469 135.394531 C 186.324219 139.433594 175.539062 136.910156 170.011719 130.867188 C 164.488281 124.824219 153.929688 108.007812 175.6875 95.914062 C 197.445312 83.816406 214.832031 114.355469 205.949219 127.074219 C 200.460938 134.9375 197.230469 135.394531 197.230469 135.394531 Z M 197.230469 135.394531 " fill-opacity="1" fill-rule="nonzero"/></g></g></g><g clip-path="url(#3d648d4053)"><g clip-path="url(#383c74e1e6)"><g clip-path="url(#56d15e5f4f)"><path fill="#ffb100" d="M 215.328125 59.40625 C 213.152344 60.210938 211.003906 59.710938 209.902344 58.503906 C 208.796875 57.296875 206.691406 53.945312 211.03125 51.535156 C 215.371094 49.121094 218.839844 55.210938 217.066406 57.746094 C 215.972656 59.316406 215.328125 59.40625 215.328125 59.40625 Z M 215.328125 59.40625 " fill-opacity="1" fill-rule="nonzero"/></g></g></g><g clip-path="url(#fe37f48023)"><g clip-path="url(#e0ff1254c4)"><g clip-path="url(#5f1433fe9b)"><path fill="#ffb100" d="M 193.371094 50.765625 C 191.195312 51.574219 189.046875 51.070312 187.941406 49.863281 C 186.839844 48.660156 184.734375 45.304688 189.074219 42.894531 C 193.414062 40.480469 196.878906 46.570312 195.109375 49.109375 C 194.015625 50.675781 193.371094 50.765625 193.371094 50.765625 Z M 193.371094 50.765625 " fill-opacity="1" fill-rule="nonzero"/></g></g></g><g clip-path="url(#5291d4d8e6)"><g clip-path="url(#198f049faa)"><g clip-path="url(#cd02ccf014)"><path fill="#ffb100" d="M 171.222656 56.730469 C 169.046875 57.535156 166.898438 57.03125 165.796875 55.828125 C 164.691406 54.621094 162.589844 51.269531 166.925781 48.859375 C 171.265625 46.445312 174.734375 52.535156 172.960938 55.070312 C 171.867188 56.640625 171.222656 56.730469 171.222656 56.730469 Z M 171.222656 56.730469 " fill-opacity="1" fill-rule="nonzero"/></g></g></g><g clip-path="url(#e2378d297c)"><g clip-path="url(#4764003b8d)"><g clip-path="url(#ac2ea52393)"><path fill="#343434" d="M 90.933594 123.347656 C 90.933594 123.347656 98.371094 119.757812 103.414062 117.417969 C 108.457031 115.078125 120.753906 110.867188 122.816406 110.75 C 122.816406 110.75 124 112.121094 124.785156 118.398438 C 125.566406 124.675781 127.738281 141.261719 127.738281 141.261719 C 127.738281 141.261719 117.515625 147.03125 111.785156 149.128906 C 106.054688 151.230469 104.335938 151.046875 104.335938 151.046875 C 104.335938 151.046875 89.378906 125.421875 90.933594 123.347656 Z M 90.933594 123.347656 " fill-opacity="1" fill-rule="nonzero"/></g></g></g><g clip-path="url(#9dc947960b)"><g clip-path="url(#49e60a95e9)"><g clip-path="url(#74e3a439e3)"><path fill="#f9643f" d="M 127.632812 127.519531 C 127.632812 127.519531 124.777344 122.003906 120.75 124.835938 C 116.722656 127.667969 112.738281 129.261719 111.289062 130.089844 C 109.839844 130.917969 105.625 131.628906 102.4375 133.527344 C 102.058594 133.753906 99.183594 136.574219 98.59375 139.703125 C 97.8125 143.847656 98.71875 144.953125 99.316406 147.417969 C 100.324219 151.578125 100.777344 154.195312 102.9375 156.246094 C 103.910156 157.167969 105.222656 157.914062 106.5625 157.980469 C 108.363281 158.078125 110.46875 158.046875 112.996094 156.722656 C 115.691406 155.308594 117.226562 154.375 121.347656 152.996094 C 125.46875 151.621094 126.875 149.425781 128.910156 148.144531 C 130.941406 146.863281 132.167969 144.015625 133.234375 140.707031 C 134.234375 137.597656 127.632812 127.519531 127.632812 127.519531 " fill-opacity="1" fill-rule="nonzero"/></g></g></g><g clip-path="url(#2c47a19af9)"><g clip-path="url(#06f916162c)"><g clip-path="url(#17f9e885bb)"><path fill="#343434" d="M 290.128906 152.59375 C 286.179688 152.367188 283.199219 149.910156 284.917969 146.519531 C 286.636719 143.132812 294.964844 145.019531 298.664062 143.414062 C 302.363281 141.808594 310.332031 138.054688 311.6875 144.8125 C 313.042969 151.570312 309.996094 157.15625 304.480469 155.988281 C 298.964844 154.820312 290.128906 152.59375 290.128906 152.59375 Z M 290.128906 152.59375 " fill-opacity="1" fill-rule="nonzero"/></g></g></g><g clip-path="url(#7eff94ae74)"><path fill="#343434" d="M 168.660156 154.777344 C 168.660156 154.777344 177.515625 153.957031 190.453125 153.574219 C 203.390625 153.1875 206.335938 153.078125 206.335938 153.078125 C 206.335938 153.078125 205.433594 170.890625 188.066406 171.574219 C 170.695312 172.261719 168.886719 158.636719 168.660156 154.777344 Z M 168.660156 154.777344 " fill-opacity="1" fill-rule="nonzero"/></g><g clip-path="url(#b4c7e7e0d3)"><path fill="#ffffff" d="M 176.410156 154.683594 C 176.410156 154.683594 181.621094 154.199219 189.234375 153.972656 C 196.847656 153.746094 198.582031 153.679688 198.582031 153.679688 C 198.582031 153.679688 198.050781 164.164062 187.828125 164.566406 C 177.605469 164.972656 176.542969 156.953125 176.410156 154.683594 Z M 176.410156 154.683594 " fill-opacity="1" fill-rule="nonzero"/></g><g clip-path="url(#fc5e7a6c59)"><g clip-path="url(#2224ad0756)"><g clip-path="url(#cc2c4868c0)"><path fill="#ffffff" d="M 287.261719 144.714844 C 287.257812 144.679688 287.257812 144.648438 287.265625 144.617188 C 287.433594 143.988281 288.269531 143.792969 292.488281 143.613281 C 296.808594 143.425781 298.550781 143.304688 298.550781 143.304688 C 298.550781 143.304688 298.789062 144.253906 297.0625 145.601562 C 295.335938 146.945312 291.285156 148.5 288.972656 146.90625 C 287.59375 145.949219 287.3125 144.949219 287.261719 144.714844 Z M 287.261719 144.714844 " fill-opacity="1" fill-rule="nonzero"/></g></g></g><g clip-path="url(#e8e7d47fff)"><g clip-path="url(#0086374dee)"><g clip-path="url(#57392f1f52)"><path fill="#ffffff" d="M 295.273438 145.105469 C 295.257812 145.078125 295.25 145.042969 295.25 145.011719 C 295.246094 144.363281 296 143.953125 300.019531 142.660156 C 304.136719 141.335938 305.785156 140.753906 305.785156 140.753906 C 305.785156 140.753906 306.265625 141.605469 304.957031 143.363281 C 303.648438 145.121094 300.15625 147.691406 297.503906 146.765625 C 295.921875 146.210938 295.382812 145.320312 295.273438 145.105469 Z M 295.273438 145.105469 " fill-opacity="1" fill-rule="nonzero"/></g></g></g><g clip-path="url(#c924063f78)"><g clip-path="url(#262254456a)"><g clip-path="url(#7e40774664)"><path fill="#343434" d="M 269.625 73.980469 L 312.660156 71.105469 L 308.53125 57.40625 C 308.53125 57.40625 291.949219 58.117188 286.175781 58.867188 C 280.402344 59.621094 270.34375 61.574219 270.34375 61.574219 Z M 269.625 73.980469 " fill-opacity="1" fill-rule="nonzero"/></g></g></g></svg>